<?xml version="1.0" encoding="iso-8859-1"?>
<!-- Generator: Adobe Illustrator 21.0.0, SVG Export Plug-In . SVG Version: 6.00 Build 0)  -->
<svg xmlns="http://www.w3.org/2000/svg" xmlns:xlink="http://www.w3.org/1999/xlink" version="1.1" id="Capa_1" x="0px" y="0px" viewBox="0 0 512 512" style="enable-background:new 0 0 512 512;" xml:space="preserve" width="512" height="512">
<g>
	<path style="fill:#7A86E8;" d="M256,0C114.509,0,0,114.497,0,256c0,141.491,114.497,256,256,256c141.091,0,256-114.326,256-256   C512,114.509,397.503,0,256,0z"/>
	<path style="fill:#4B5ADD;" d="M256,0v512c141.091,0,256-114.326,256-256C512,114.509,397.503,0,256,0z"/>
	<g>
		<path style="fill:#E1E4F9;" d="M191.072,291.155c4.293-7.085,2.031-16.31-5.054-20.603c-7.084-4.293-16.309-2.031-20.602,5.054    c-15.674,25.864-40.618,52.303-68.058,62.505c-7.765,2.887-11.72,11.521-8.833,19.286c2.887,7.767,11.523,11.72,19.287,8.833    C141.999,353.522,171.828,322.91,191.072,291.155z"/>
		<path style="fill:#E1E4F9;" d="M184.975,232.079c-2.463,7.91,1.952,16.318,9.862,18.781c7.91,2.463,16.318-1.952,18.782-9.861    c16.759-53.819,102.626-35.32,85.113,29.556c-12.076,44.737-49.995,103.622-96.604,150.016    c-5.872,5.844-5.894,15.342-0.049,21.213c5.844,5.87,15.34,5.894,21.213,0.049c50.073-49.841,91.054-114.003,104.404-163.459    c9.002-33.352-1.35-56.337-11.62-69.746C279.846,161.319,203.328,173.144,184.975,232.079z"/>
		<path style="fill:#E1E4F9;" d="M411.345,135.664c-78.368-102.328-235.044-101.992-312.22,3.547    c-17.957,24.558-26.762,54.409-33.979,69.37c-3.599,7.462-0.467,16.428,6.994,20.027c7.463,3.598,16.428,0.467,20.027-6.994    c13.227-27.425,19.627-65.797,66.978-100.416c114.544-83.748,282.218,6.671,259.415,160.265    c-1.217,8.194,4.44,15.824,12.634,17.04c8.172,1.218,15.821-4.422,17.041-12.634C456.977,226.992,442.396,176.206,411.345,135.664    z"/>
		<path style="fill:#E1E4F9;" d="M323.327,389.725c-6.935-4.535-16.23-2.586-20.762,4.349c-6.491,9.932-13.244,19.847-20.644,30.313    c-7.05,9.972,0.183,23.661,12.235,23.661c4.705,0,9.338-2.207,12.261-6.341c7.612-10.768,14.566-20.979,21.26-31.219    C332.208,403.553,330.261,394.257,323.327,389.725z"/>
		<path style="fill:#E1E4F9;" d="M329.891,140.988c-6.962-4.491-16.246-2.487-20.735,4.476c-4.49,6.962-2.486,16.245,4.476,20.735    c31.265,20.165,48.965,54.782,47.347,92.603c-0.364,8.501,6.419,15.642,14.998,15.642c7.988,0,14.63-6.301,14.975-14.358    C393.029,211.509,370.203,166.987,329.891,140.988z"/>
		<path style="fill:#E1E4F9;" d="M227.616,153.438c14.16-4.057,29.048-5.087,43.651-3.026c8.196,1.153,15.792-4.552,16.95-12.755    s-4.552-15.792-12.755-16.95c-18.074-2.553-37.246-1.511-56.107,3.892c-7.964,2.281-12.57,10.587-10.289,18.551    C211.347,151.117,219.656,155.72,227.616,153.438z"/>
		<path style="fill:#E1E4F9;" d="M156.337,223.142c5.859-18.898,16.872-35.667,31.849-48.491c6.293-5.388,7.026-14.857,1.638-21.149    c-5.388-6.292-14.858-7.025-21.149-1.638c-19.281,16.509-33.456,38.085-40.992,62.396c-11.575,37.337-28.828,59.524-52.746,67.829    c-7.826,2.717-11.967,11.265-9.25,19.09c2.719,7.832,11.269,11.966,19.09,9.25C117.868,298.938,141.944,269.57,156.337,223.142z"/>
		<path style="fill:#E1E4F9;" d="M270.894,258.862c2.465-7.909-1.949-16.319-9.858-18.783c-7.909-2.469-16.319,1.949-18.783,9.857    c-26.971,86.553-87.138,125.766-104.936,135.722c-7.23,4.045-9.812,13.185-5.768,20.414c4.04,7.223,13.175,9.816,20.414,5.768    C202.127,383.778,248.793,329.785,270.894,258.862z"/>
	</g>
	<g>
		<path style="fill:#D6DAF6;" d="M298.731,270.555c-6.89,25.525-22.202,55.655-42.731,85.443v49.721    c34.661-42.321,61.399-89.204,71.695-127.346c15.701-58.168-26.299-99.284-71.695-98.982v30    C282.169,209.078,309.15,231.958,298.731,270.555z"/>
		<path style="fill:#D6DAF6;" d="M256,59.385v30c93.929-0.25,179.178,80.156,162.561,192.078c-1.217,8.194,4.44,15.824,12.634,17.04    c8.172,1.218,15.821-4.422,17.041-12.634C467.437,156.546,369.011,59.084,256,59.385z"/>
		<path style="fill:#D6DAF6;" d="M323.327,389.725c-6.935-4.535-16.23-2.586-20.762,4.349c-6.491,9.932-13.244,19.847-20.644,30.313    c-7.05,9.972,0.183,23.661,12.235,23.661c4.705,0,9.338-2.207,12.261-6.341c7.612-10.768,14.566-20.979,21.26-31.219    C332.208,403.553,330.261,394.257,323.327,389.725z"/>
		<path style="fill:#D6DAF6;" d="M329.891,140.988c-6.962-4.491-16.246-2.487-20.735,4.476c-4.49,6.962-2.486,16.245,4.476,20.735    c31.265,20.165,48.965,54.782,47.347,92.603c-0.364,8.501,6.419,15.642,14.998,15.642c7.988,0,14.63-6.301,14.975-14.358    C393.029,211.509,370.203,166.987,329.891,140.988z"/>
		<path style="fill:#D6DAF6;" d="M271.267,150.412c8.196,1.153,15.792-4.552,16.95-12.755s-4.552-15.792-12.755-16.95    c-6.359-0.898-12.745-1.344-19.461-1.318v30C261.291,149.361,266.287,149.709,271.267,150.412z"/>
		<path style="fill:#D6DAF6;" d="M256,239.422v57.646c5.781-12.198,10.759-24.939,14.894-38.206    C273.953,249.045,266.42,239.024,256,239.422z"/>
	</g>
	<path style="fill:#3C3A41;" d="M361.047,366v-64.047C361.047,285.437,374.484,272,391,272s29.953,13.437,29.953,29.953V316.5   c0,8.284,6.716,15,15,15s15-6.716,15-15v-14.547C450.953,268.895,424.058,242,391,242s-59.953,26.895-59.953,59.953V366H361.047z"/>
	<path style="fill:#2B292C;" d="M391,242v30c16.516,0,29.953,13.437,29.953,29.953V316.5c0,8.284,6.716,15,15,15s15-6.716,15-15   v-14.547C450.953,268.895,424.058,242,391,242z"/>
	<path style="fill:#FEB655;" d="M466,511H316c-8.284,0-15-6.716-15-15V376c0-8.284,6.716-15,15-15h150c8.284,0,15,6.716,15,15v120   C481,504.284,474.284,511,466,511z"/>
	<path style="fill:#FD9A2B;" d="M466,361h-75v150h75c8.284,0,15-6.716,15-15V376C481,367.716,474.284,361,466,361z"/>
	<path style="fill:#F0725F;" d="M406,451h-30c-8.284,0-15-6.716-15-15s6.716-15,15-15h30c8.284,0,15,6.716,15,15   S414.284,451,406,451z"/>
	<path style="fill:#EA3D2C;" d="M406,421h-15v30h15c8.284,0,15-6.716,15-15S414.284,421,406,421z"/>
	<path style="fill:none;" d="M256,209.391v30.031c10.412-0.398,17.955,9.615,14.894,19.44c-4.134,13.267-9.112,26.008-14.894,38.206   v58.93c20.53-29.788,35.842-59.918,42.731-85.443C309.093,232.17,282.354,209.075,256,209.391z"/>
</g>
</svg>