<svg xmlns="http://www.w3.org/2000/svg" xmlns:xlink="http://www.w3.org/1999/xlink" width="559" height="559" viewBox="0 0 559 559"><defs><style>.a{clip-path:url(#b);}.b{fill:#5dddd3;}.c{fill:#fff;}.d{fill:#15bdb1;}.e{fill:#c8cacc;}.f{fill:#666;}.g{fill:#fbb429;}.h{fill:#ff5b61;}.i{fill:#ec4b53;}.j{fill:#0e7886;}.k{fill:#d0d1d4;}</style><clipPath id="b"><rect width="559" height="559"/></clipPath></defs><g id="a" class="a"><rect class="c" width="559" height="559"/><g transform="translate(24 46.999)"><path class="b" d="M256,512c141,0,256-115,256-256S397,0,256,0,0,115,0,256,115,512,256,512Z"/><path class="c" d="M334.9,69.929,95.985,166.653l137.508,339.66L472.41,409.59Z"/><path class="d" d="M6.919,323.374H225.931V61.668H6.919Z"/><path class="e" d="M159.431,323.374h66.5V114.048L95.985,166.655l63.446,156.721Z"/><path class="f" d="M0,315.8H219.012V54.09H0Z"/><path class="c" d="M26.121,139.593H48.672a5.567,5.567,0,0,1,5.552,5.552V167.7a5.567,5.567,0,0,1-5.552,5.552H26.121a5.568,5.568,0,0,1-5.552-5.552V145.145A5.568,5.568,0,0,1,26.121,139.593Z"/><path class="c" d="M69.833,139.593H92.386a5.565,5.565,0,0,1,5.55,5.552V167.7a5.566,5.566,0,0,1-5.55,5.552H69.833a5.57,5.57,0,0,1-5.552-5.552V145.145A5.569,5.569,0,0,1,69.833,139.593Z"/><path class="g" d="M113.546,139.593H136.1a5.568,5.568,0,0,1,5.552,5.552V167.7a5.569,5.569,0,0,1-5.552,5.552H113.546A5.565,5.565,0,0,1,108,167.7V145.145A5.565,5.565,0,0,1,113.546,139.593Z"/><path class="h" d="M157.261,139.593h22.551a5.567,5.567,0,0,1,5.552,5.552V167.7a5.568,5.568,0,0,1-5.552,5.552H157.261a5.568,5.568,0,0,1-5.552-5.552V145.145A5.567,5.567,0,0,1,157.261,139.593Z"/><path class="c" d="M26.121,182.345H48.672a5.569,5.569,0,0,1,5.552,5.552v22.551A5.567,5.567,0,0,1,48.672,216H26.121a5.567,5.567,0,0,1-5.552-5.552V187.9A5.569,5.569,0,0,1,26.121,182.345Z"/><path class="c" d="M69.833,182.345H92.386a5.567,5.567,0,0,1,5.55,5.552v22.551A5.566,5.566,0,0,1,92.386,216H69.833a5.568,5.568,0,0,1-5.552-5.552V187.9A5.57,5.57,0,0,1,69.833,182.345Z"/><path class="c" d="M113.546,182.345H136.1a5.571,5.571,0,0,1,5.552,5.552v22.551A5.569,5.569,0,0,1,136.1,216H113.546A5.564,5.564,0,0,1,108,210.448V187.9A5.567,5.567,0,0,1,113.546,182.345Z"/><path class="c" d="M157.261,182.345h22.551a5.569,5.569,0,0,1,5.552,5.552v22.551A5.568,5.568,0,0,1,179.812,216H157.261a5.567,5.567,0,0,1-5.552-5.552V187.9A5.568,5.568,0,0,1,157.261,182.345Z"/><path class="c" d="M26.121,225.1H48.672a5.567,5.567,0,0,1,5.552,5.55V253.2a5.564,5.564,0,0,1-5.552,5.547H26.121a5.567,5.567,0,0,1-5.552-5.547V230.648A5.567,5.567,0,0,1,26.121,225.1Z"/><path class="c" d="M69.833,225.1H92.386a5.566,5.566,0,0,1,5.55,5.55V253.2a5.564,5.564,0,0,1-5.55,5.547H69.833a5.569,5.569,0,0,1-5.552-5.547V230.648A5.569,5.569,0,0,1,69.833,225.1Z"/><path class="c" d="M113.546,225.1H136.1a5.569,5.569,0,0,1,5.552,5.55V253.2a5.567,5.567,0,0,1-5.552,5.547H113.546A5.564,5.564,0,0,1,108,253.2V230.648A5.565,5.565,0,0,1,113.546,225.1Z"/><path class="c" d="M157.261,225.1h22.551a5.567,5.567,0,0,1,5.552,5.55V253.2a5.565,5.565,0,0,1-5.552,5.547H157.261a5.567,5.567,0,0,1-5.552-5.547V230.648A5.567,5.567,0,0,1,157.261,225.1Z"/><path class="c" d="M26.121,267.848H48.672a5.566,5.566,0,0,1,5.552,5.55v22.551a5.567,5.567,0,0,1-5.552,5.552H26.121a5.568,5.568,0,0,1-5.552-5.552V273.4A5.565,5.565,0,0,1,26.121,267.848Z"/><path class="c" d="M69.833,267.848H92.386a5.564,5.564,0,0,1,5.55,5.55v22.551a5.566,5.566,0,0,1-5.55,5.552H69.833a5.57,5.57,0,0,1-5.552-5.552V273.4A5.567,5.567,0,0,1,69.833,267.848Z"/><path class="c" d="M113.546,267.848H136.1a5.568,5.568,0,0,1,5.552,5.55v22.551A5.569,5.569,0,0,1,136.1,301.5H113.546A5.565,5.565,0,0,1,108,295.949V273.4A5.563,5.563,0,0,1,113.546,267.848Z"/><path class="c" d="M157.261,267.848h22.551a5.566,5.566,0,0,1,5.552,5.55v22.551a5.568,5.568,0,0,1-5.552,5.552H157.261a5.568,5.568,0,0,1-5.552-5.552V273.4A5.565,5.565,0,0,1,157.261,267.848Z"/><path class="e" d="M14.878,67.852H204.131v41.841H14.878Z"/><path class="c" d="M184.665,75.827a8.634,8.634,0,0,1,6.1,2.542l0,0,0,0a8.621,8.621,0,0,1,2.542,6.105v6.328a8.64,8.64,0,0,1-14.761,6.114l-.007-.007a8.622,8.622,0,0,1-2.54-6.107V84.48a8.676,8.676,0,0,1,8.656-8.654h0Zm3.918,4.732h0a5.554,5.554,0,0,0-9.47,3.923V90.81a5.55,5.55,0,0,0,11.1,0V84.484a5.525,5.525,0,0,0-1.627-3.918l0,0Z"/><path class="i" d="M272.71,268.844h7.1V49.147h-7.1Z"/><path class="h" d="M286.92,268.844h-7.106V49.147h7.106Z"/><path class="i" d="M286.92,268.844h7.106V49.147H286.92Z"/><path class="g" d="M283.38,315.644l10.647-46.8H272.71Z"/><path class="c" d="M272.71,49.147h21.316V42.208H272.71Z"/><path class="j" d="M279.649,28.335h7.439a6.957,6.957,0,0,1,6.939,6.939V42.21H272.71V35.274A6.957,6.957,0,0,1,279.649,28.335Z"/><path class="j" d="M282.943,319.026h.889l3.545-20.928h-7.948Z"/><path class="k" d="M239.477,449.874l95.531-39.367,1.338,3.259-95.531,39.369ZM225.2,410.656h0l1.338,3.261L358.22,359.652l-1.338-3.259Zm7.137,19.61h0l1.338,3.259,131.681-54.263L364.019,376Z"/><path class="d" d="M276.2,372.96,270.8,359.537l-13.352,5.382-2.262-5.616,13.352-5.382-5.382-13.352,5.684-2.291,5.382,13.352,13.352-5.382,2.262,5.616-13.355,5.382,5.411,13.421-5.684,2.291Z"/><path class="d" d="M333.658,233.214v-6.886H360.8v6.886Z"/><path class="k" d="M359.053,310.493a4.831,4.831,0,0,0,3.051-.882,5.468,5.468,0,0,0,1.691-2.306,11.2,11.2,0,0,0,.7-3.177c.084-1.171.139-2.35.139-3.53,0-1.149-.055-2.275-.161-3.4a10.353,10.353,0,0,0-.71-3.021,5.122,5.122,0,0,0-1.658-2.167,4.885,4.885,0,0,0-2.985-.82,4.984,4.984,0,0,0-2.988.807,5.186,5.186,0,0,0-1.711,2.15,10.055,10.055,0,0,0-.776,3.051,31.691,31.691,0,0,0-.192,3.517c0,1.169.053,2.328.159,3.486a10.267,10.267,0,0,0,.734,3.146,5.475,5.475,0,0,0,1.691,2.275,4.8,4.8,0,0,0,3.021.871Zm-10.184-9.811h0a23.666,23.666,0,0,1,.626-5.633,12.331,12.331,0,0,1,1.9-4.286,8.7,8.7,0,0,1,3.2-2.712,10.345,10.345,0,0,1,4.551-.944,10.174,10.174,0,0,1,4.443.915,8.251,8.251,0,0,1,3.126,2.666,12.353,12.353,0,0,1,1.87,4.264,24.056,24.056,0,0,1,.62,5.73q0,6.76-2.445,10.279t-7.708,3.517c-3.528,0-6.1-1.171-7.739-3.517S348.869,305.186,348.869,300.682Zm-17.9-13.948h0a4.739,4.739,0,0,0,3.051-.893,5.423,5.423,0,0,0,1.68-2.3,11.247,11.247,0,0,0,.71-3.23q.162-1.8.161-3.636c0-1.105-.055-2.2-.161-3.307a9.8,9.8,0,0,0-.71-2.977,5.109,5.109,0,0,0-1.669-2.15,4.891,4.891,0,0,0-3-.827,5,5,0,0,0-3,.82,5.106,5.106,0,0,0-1.713,2.125,10.161,10.161,0,0,0-.776,3.032,30.414,30.414,0,0,0-.192,3.431c0,1.2.053,2.4.159,3.583a11,11,0,0,0,.734,3.179,5.408,5.408,0,0,0,1.7,2.273,4.822,4.822,0,0,0,3.018.871h0Zm-10.184-9.811h0a23.468,23.468,0,0,1,.617-5.625,12,12,0,0,1,1.925-4.262,8.684,8.684,0,0,1,3.221-2.71,10.068,10.068,0,0,1,4.538-.948,9.922,9.922,0,0,1,4.41.913,8.376,8.376,0,0,1,3.137,2.67,12.346,12.346,0,0,1,1.861,4.262,23.86,23.86,0,0,1,.626,5.7q0,6.76-2.445,10.279c-1.625,2.339-4.2,3.519-7.706,3.519s-6.081-1.18-7.728-3.519-2.456-5.772-2.456-10.279Zm3.391,37.46h0l39.268-52.47,2.593,1.775-38.959,52.354Z"/><path class="g" d="M392.71,198.325l-6.24-5.382a30.249,30.249,0,0,1-8.638,5.783,17.551,17.551,0,0,1-9.221.847,23.177,23.177,0,0,1-10.345-4.617l4.176-7.28q5.682,3.635,9.624,3.828a12.012,12.012,0,0,0,9.157-3.087L361.64,171.524a43.294,43.294,0,0,1-10.019,5.045,15.161,15.161,0,0,1-8.553.62,19.423,19.423,0,0,1-14.8-18.164c-.04-3.682,1.519-7.781,4.661-12.261l-2.977-2.571,3.182-3.686,2.979,2.569q5.176-4.964,10.6-5.816a18.879,18.879,0,0,1,13.569,3.173l-4.511,7.241a14.207,14.207,0,0,0-7.675-2.6,11.1,11.1,0,0,0-6.738,2.531l17.965,15.5a67.909,67.909,0,0,1,7.227-4.606,19.977,19.977,0,0,1,7.2-2.037,16.365,16.365,0,0,1,6.8.939,20.038,20.038,0,0,1,9.031,31.8l6.31,5.446-3.179,3.686Zm-54.6-47.1h0a12.029,12.029,0,0,0-2.006,8.226,11.487,11.487,0,0,0,10.645,9.738c2.447.053,5.27-1.019,8.449-3.223Zm46.3,33.5h0a12.13,12.13,0,0,0,2.022-8.724,12.948,12.948,0,0,0-4.639-8.125,11.075,11.075,0,0,0-6.908-3.032c-2.339-.06-5.375,1.215-9.115,3.8Z"/><path class="k" d="M396.185,350.7l2.84-10-10-2.84,1.091-3.841,10,2.842,2.84-10,3.839,1.091-2.84,10,10,2.84-1.091,3.841-10-2.842-2.842,10-3.839-1.091Z"/></g></g></svg>