<svg width="32" height="32" viewBox="0 0 32 32" fill="none" xmlns="http://www.w3.org/2000/svg">
<path d="M29.3333 5.34665C28 5.99999 26.6933 6.26532 25.3333 6.66665C23.8387 4.97999 21.6227 4.88665 19.4933 5.68399C17.364 6.48132 15.9693 8.43065 16 10.6667V12C11.6733 12.1107 7.81999 10.14 5.33332 6.66665C5.33332 6.66665 -0.242677 16.5773 10.6667 21.3333C8.17066 22.996 5.68132 24.1173 2.66666 24C7.07732 26.404 11.884 27.2307 16.0453 26.0227C20.8187 24.636 24.7413 21.0587 26.2467 15.7C26.6957 14.0702 26.9187 12.3865 26.9093 10.696C26.9067 10.364 28.9227 6.99999 29.3333 5.34532V5.34665Z" stroke="#AE6F58" stroke-width="2.66667" stroke-linecap="round" stroke-linejoin="round"/>
</svg>
