<svg width="32" height="32" viewBox="0 0 32 32" fill="none" xmlns="http://www.w3.org/2000/svg">
<path d="M21.3333 5.33334H10.6667C7.72116 5.33334 5.33334 7.72116 5.33334 10.6667V21.3333C5.33334 24.2789 7.72116 26.6667 10.6667 26.6667H21.3333C24.2789 26.6667 26.6667 24.2789 26.6667 21.3333V10.6667C26.6667 7.72116 24.2789 5.33334 21.3333 5.33334Z" stroke="#AE6F58" stroke-width="2.66667" stroke-linecap="round" stroke-linejoin="round"/>
<path d="M16 20C18.2091 20 20 18.2091 20 16C20 13.7909 18.2091 12 16 12C13.7909 12 12 13.7909 12 16C12 18.2091 13.7909 20 16 20Z" stroke="#AE6F58" stroke-width="2.66667" stroke-linecap="round" stroke-linejoin="round"/>
<path d="M22 10V10.001" stroke="#AE6F58" stroke-width="2.66667" stroke-linecap="round" stroke-linejoin="round"/>
</svg>
