<svg width="32" height="32" viewBox="0 0 32 32" fill="none" xmlns="http://www.w3.org/2000/svg">
<path d="M10.6667 26.6667L16 14.6667" stroke="#AE6F58" stroke-width="2.66667" stroke-linecap="round" stroke-linejoin="round"/>
<path d="M14.2667 18.6667C14.8493 20.3507 16.1733 21.3333 17.6667 21.3333C20.428 21.3333 22.6667 19.2613 22.6667 16C22.6678 15.0264 22.4557 14.0644 22.0453 13.1816C21.6348 12.2988 21.036 11.5166 20.2909 10.8899C19.5458 10.2633 18.6725 9.8075 17.7324 9.55451C16.7922 9.30153 15.8081 9.25752 14.8492 9.42559C13.8902 9.59365 12.9797 9.9697 12.1816 10.5273C11.3836 11.0849 10.7173 11.8106 10.2297 12.6532C9.74214 13.4959 9.44502 14.4351 9.35926 15.4049C9.2735 16.3747 9.40119 17.3515 9.73334 18.2667" stroke="#AE6F58" stroke-width="2.66667" stroke-linecap="round" stroke-linejoin="round"/>
<path d="M16 28C22.6274 28 28 22.6274 28 16C28 9.37258 22.6274 4 16 4C9.37258 4 4 9.37258 4 16C4 22.6274 9.37258 28 16 28Z" stroke="#AE6F58" stroke-width="2.66667" stroke-linecap="round" stroke-linejoin="round"/>
</svg>
