<svg width="32" height="32" viewBox="0 0 32 32" fill="none" xmlns="http://www.w3.org/2000/svg">
<path d="M24 5.33334H8.00001C6.52725 5.33334 5.33334 6.52725 5.33334 8.00001V24C5.33334 25.4728 6.52725 26.6667 8.00001 26.6667H24C25.4728 26.6667 26.6667 25.4728 26.6667 24V8.00001C26.6667 6.52725 25.4728 5.33334 24 5.33334Z" stroke="#AE6F58" stroke-width="2.66667" stroke-linecap="round" stroke-linejoin="round"/>
<path d="M10.6667 14.6667V21.3334" stroke="#AE6F58" stroke-width="2.66667" stroke-linecap="round" stroke-linejoin="round"/>
<path d="M10.6667 10.6667V10.68" stroke="#AE6F58" stroke-width="2.66667" stroke-linecap="round" stroke-linejoin="round"/>
<path d="M16 21.3334V14.6667" stroke="#AE6F58" stroke-width="2.66667" stroke-linecap="round" stroke-linejoin="round"/>
<path d="M21.3333 21.3334V17.3334C21.3333 16.6261 21.0524 15.9478 20.5523 15.4477C20.0522 14.9476 19.3739 14.6667 18.6667 14.6667C17.9594 14.6667 17.2811 14.9476 16.781 15.4477C16.281 15.9478 16 16.6261 16 17.3334" stroke="#AE6F58" stroke-width="2.66667" stroke-linecap="round" stroke-linejoin="round"/>
</svg>
