<svg width="32" height="32" viewBox="0 0 32 32" fill="none" xmlns="http://www.w3.org/2000/svg">
<path d="M4 24V8H10C11.0609 8 12.0783 8.42143 12.8284 9.17157C13.5786 9.92172 14 10.9391 14 12C14 13.0609 13.5786 14.0783 12.8284 14.8284C12.0783 15.5786 11.0609 16 10 16C11.0609 16 12.0783 16.4214 12.8284 17.1716C13.5786 17.9217 14 18.9391 14 20C14 21.0609 13.5786 22.0783 12.8284 22.8284C12.0783 23.5786 11.0609 24 10 24H4Z" stroke="#AE6F58" stroke-width="2.66667" stroke-linecap="round" stroke-linejoin="round"/>
<path d="M4 16H10" stroke="#AE6F58" stroke-width="2.66667" stroke-linecap="round" stroke-linejoin="round"/>
<path d="M18.6667 17.3333H28C28 16.0956 27.5083 14.9087 26.6332 14.0335C25.758 13.1583 24.571 12.6667 23.3333 12.6667C22.0956 12.6667 20.9087 13.1583 20.0335 14.0335C19.1583 14.9087 18.6667 16.0956 18.6667 17.3333V20C18.8042 20.9982 19.2611 21.9251 19.9692 22.6421C20.6772 23.3591 21.5983 23.8276 22.5947 23.9777C23.5911 24.1277 24.6093 23.9512 25.4971 23.4746C26.3849 22.998 27.0946 22.2468 27.52 21.3333" stroke="#AE6F58" stroke-width="2.66667" stroke-linecap="round" stroke-linejoin="round"/>
<path d="M21.3333 8H25.3333" stroke="#AE6F58" stroke-width="2.66667" stroke-linecap="round" stroke-linejoin="round"/>
</svg>
