<svg xmlns="http://www.w3.org/2000/svg" xmlns:xlink="http://www.w3.org/1999/xlink" width="550" height="550" viewBox="0 0 550 550"><defs><style>.a{clip-path:url(#b);}.b{fill:#7a86e8;}.c{fill:#4b5add;}.d{fill:#e1e4f9;}.e{fill:#d6daf6;}.f{fill:#3c3a41;}.g{fill:#2b292c;}.h{fill:#feb655;}.i{fill:#fd9a2b;}.j{fill:#f0725f;}.k{fill:#ea3d2c;}.l{fill:none;}</style><clipPath id="b"><rect width="550" height="550"/></clipPath></defs><g id="a" class="a"><g transform="translate(19 38)"><path class="b" d="M256,0C114.509,0,0,114.5,0,256S114.5,512,256,512c141.091,0,256-114.326,256-256C512,114.509,397.5,0,256,0Z"/><path class="c" d="M256,0V512c141.091,0,256-114.326,256-256C512,114.509,397.5,0,256,0Z"/><path class="d" d="M191.072,291.155a15,15,0,1,0-25.656-15.549c-15.674,25.864-40.618,52.3-68.058,62.505a15,15,0,1,0,10.454,28.119C142,353.522,171.828,322.91,191.072,291.155Z"/><path class="d" d="M184.975,232.079A15,15,0,0,0,213.619,241c16.759-53.819,102.626-35.32,85.113,29.556-12.076,44.737-49.995,103.622-96.6,150.016a15,15,0,0,0,21.164,21.262c50.073-49.841,91.054-114,104.4-163.459,9-33.352-1.35-56.337-11.62-69.746C279.846,161.319,203.328,173.144,184.975,232.079Z"/><path class="d" d="M411.345,135.664C332.977,33.336,176.3,33.672,99.125,139.211c-17.957,24.558-26.762,54.409-33.979,69.37a15,15,0,1,0,27.021,13.033c13.227-27.425,19.627-65.8,66.978-100.416C273.689,37.45,441.363,127.869,418.56,281.463a15,15,0,0,0,29.675,4.406C456.977,226.992,442.4,176.206,411.345,135.664Z"/><path class="d" d="M323.327,389.725a15,15,0,0,0-20.762,4.349c-6.491,9.932-13.244,19.847-20.644,30.313a15,15,0,1,0,24.5,17.32c7.612-10.768,14.566-20.979,21.26-31.219A15,15,0,0,0,323.327,389.725Z"/><path class="d" d="M329.891,140.988A15,15,0,1,0,313.632,166.2c31.265,20.165,48.965,54.782,47.347,92.6a15,15,0,0,0,29.973,1.284C393.029,211.509,370.2,166.987,329.891,140.988Z"/><path class="d" d="M227.616,153.438a105.191,105.191,0,0,1,43.651-3.026,15,15,0,1,0,4.2-29.705,135.2,135.2,0,0,0-56.107,3.892,15,15,0,1,0,8.261,28.839Z"/><path class="d" d="M156.337,223.142a104.459,104.459,0,0,1,31.849-48.491,15,15,0,1,0-19.511-22.787,134.407,134.407,0,0,0-40.992,62.4c-11.575,37.337-28.828,59.524-52.746,67.829a15,15,0,0,0,9.84,28.34C117.868,298.938,141.944,269.57,156.337,223.142Z"/><path class="d" d="M270.894,258.862a15,15,0,0,0-28.641-8.926C215.282,336.489,155.115,375.7,137.317,385.658a15,15,0,0,0,14.646,26.182C202.127,383.778,248.793,329.785,270.894,258.862Z"/><path class="e" d="M298.731,270.555C291.841,296.08,276.529,326.21,256,356v49.721c34.661-42.321,61.4-89.2,71.695-127.346,15.7-58.168-26.3-99.284-71.7-98.982v30C282.169,209.078,309.15,231.958,298.731,270.555Z"/><path class="e" d="M256,59.385v30c93.929-.25,179.178,80.156,162.561,192.078a15,15,0,0,0,29.675,4.406C467.437,156.546,369.011,59.084,256,59.385Z"/><path class="e" d="M323.327,389.725a15,15,0,0,0-20.762,4.349c-6.491,9.932-13.244,19.847-20.644,30.313a15,15,0,1,0,24.5,17.32c7.612-10.768,14.566-20.979,21.26-31.219A15,15,0,0,0,323.327,389.725Z"/><path class="e" d="M329.891,140.988A15,15,0,1,0,313.632,166.2c31.265,20.165,48.965,54.782,47.347,92.6a15,15,0,0,0,29.973,1.284C393.029,211.509,370.2,166.987,329.891,140.988Z"/><path class="e" d="M271.267,150.412a15,15,0,1,0,4.2-29.705A134.22,134.22,0,0,0,256,119.389v30A104.152,104.152,0,0,1,271.267,150.412Z"/><path class="e" d="M256,239.422v57.646a292,292,0,0,0,14.894-38.206A14.992,14.992,0,0,0,256,239.422Z"/><path class="f" d="M361.047,366V301.953a29.953,29.953,0,0,1,59.906,0V316.5a15,15,0,0,0,30,0V301.953a59.953,59.953,0,0,0-119.906,0V366Z"/><path class="g" d="M391,242v30a29.987,29.987,0,0,1,29.953,29.953V316.5a15,15,0,0,0,30,0V301.953A60.021,60.021,0,0,0,391,242Z"/><path class="h" d="M466,511H316a15,15,0,0,1-15-15V376a15,15,0,0,1,15-15H466a15,15,0,0,1,15,15V496A15,15,0,0,1,466,511Z"/><path class="i" d="M466,361H391V511h75a15,15,0,0,0,15-15V376A15,15,0,0,0,466,361Z"/><path class="j" d="M406,451H376a15,15,0,0,1,0-30h30a15,15,0,0,1,0,30Z"/><path class="k" d="M406,421H391v30h15a15,15,0,0,0,0-30Z"/><path class="l" d="M256,209.391v30.031a14.992,14.992,0,0,1,14.894,19.44A291.711,291.711,0,0,1,256,297.068V356c20.53-29.788,35.842-59.918,42.731-85.443C309.093,232.17,282.354,209.075,256,209.391Z"/></g></g></svg>